<svg width="50" height="50" viewBox="0 0 50 50" fill="none" xmlns="http://www.w3.org/2000/svg">
<rect x="0.5" y="0.5" width="49" height="49" rx="9.5" stroke="#582D7F"/>
<path d="M13.9268 14.6957L13.9266 14.6957C13.1101 14.6966 12.3274 15.0214 11.7501 15.5987C11.1727 16.176 10.848 16.9588 10.8471 17.7752V17.7754L10.8471 32.2246L10.8471 32.2248C10.848 33.0412 11.1727 33.824 11.7501 34.4013C12.3274 34.9786 13.1101 35.3034 13.9266 35.3043H13.9268H36.0745H36.0747C36.8911 35.3034 37.6739 34.9786 38.2512 34.4013C38.8285 33.824 39.1532 33.0412 39.1542 32.2248V32.2246V17.7754V17.7752C39.1533 16.9588 38.8286 16.176 38.2512 15.5987C37.6739 15.0214 36.8912 14.6966 36.0747 14.6957L36.0745 14.8457V14.6957L13.9268 14.6957ZM23.7653 26.7667L23.7642 26.7659L12.3189 17.9624L12.3189 17.7756C12.3189 17.7755 12.3189 17.7755 12.3189 17.7755C12.3195 17.3492 12.489 16.9405 12.7904 16.6391C13.0919 16.3376 13.5006 16.1681 13.9269 16.1676H36.0743C36.5006 16.1681 36.9093 16.3376 37.2108 16.6391C37.5123 16.9405 37.6818 17.3492 37.6823 17.7756V17.9655L26.466 26.7689C26.4659 26.769 26.4659 26.769 26.4658 26.7691C26.08 27.0702 25.6046 27.2335 25.1152 27.2331C24.6258 27.2327 24.1506 27.0686 23.7653 26.7667ZM27.3723 27.9284L27.3725 27.9282L29.9249 25.9254L37.3801 33.162C37.2433 33.3526 37.0661 33.5113 36.8607 33.6266C36.6205 33.7614 36.3498 33.8322 36.0745 33.8324H13.9268C13.6524 33.8322 13.3825 33.7618 13.1429 33.6279C12.9387 33.5137 12.7623 33.3566 12.6256 33.168L20.2937 25.9538L22.8624 27.9295C22.8626 27.9297 22.8628 27.9298 22.8629 27.9299C23.5069 28.4328 24.3005 28.7058 25.1176 28.7056C25.9348 28.7054 26.7285 28.4318 27.3723 27.9284ZM37.6824 31.4042L31.0933 25.008L37.6824 19.8366V31.4042ZM19.1119 25.0443L12.3189 31.4354V19.8193L19.1119 25.0443Z" fill="#582D7F" stroke="#582D7F" stroke-width="0.3"/>
</svg>
