<svg width="50" height="50" viewBox="0 0 50 50" fill="none" xmlns="http://www.w3.org/2000/svg">
<rect width="50" height="50" rx="10" fill="#582D7F"/>
<path d="M38.8281 16H11.1719C10.5246 16 10 16.6009 10 17.3421C10 18.0833 10.5246 18.6842 11.1719 18.6842H38.8281C39.4754 18.6842 40 18.0833 40 17.3421C40 16.6009 39.4754 16 38.8281 16Z" fill="white"/>
<path d="M38.8288 23.8948H21.8428C21.1955 23.8948 20.6709 24.4956 20.6709 25.2369C20.6709 25.9781 21.1955 26.579 21.8428 26.579H38.8288C39.476 26.579 40.0007 25.9781 40.0007 25.2369C40.0007 24.4956 39.476 23.8948 38.8288 23.8948Z" fill="white"/>
<path d="M38.8288 31.7894H21.8428C21.1955 31.7894 20.6709 32.3903 20.6709 33.1315C20.6709 33.8728 21.1955 34.4736 21.8428 34.4736H38.8288C39.476 34.4736 40.0007 33.8728 40.0007 33.1315C40.0007 32.3903 39.476 31.7894 38.8288 31.7894Z" fill="white"/>
</svg>
