<svg width="50" height="50" viewBox="0 0 50 50" fill="none" xmlns="http://www.w3.org/2000/svg">
<rect x="0.5" y="0.5" width="49" height="49" rx="9.5" stroke="#582D7F"/>
<path d="M31.9843 29.6219C31.7231 29.3597 31.4126 29.1517 31.0707 29.0097C30.7288 28.8678 30.3623 28.7947 29.9922 28.7947C29.622 28.7947 29.2555 28.8678 28.9136 29.0097C28.5717 29.1517 28.2613 29.3597 28 29.6219L26.6406 30.9813C25.11 30.0099 23.692 28.8717 22.4125 27.5875C21.131 26.3056 19.9931 24.8878 19.0187 23.3594L20.3781 22C20.6403 21.7387 20.8483 21.4283 20.9903 21.0864C21.1322 20.7445 21.2053 20.378 21.2053 20.0078C21.2053 19.6377 21.1322 19.2712 20.9903 18.9293C20.8483 18.5874 20.6403 18.2769 20.3781 18.0157L17.725 15.3719C17.4674 15.1088 17.1595 14.9002 16.8197 14.7585C16.4799 14.6168 16.115 14.5448 15.7468 14.5469V14.5469C15.376 14.546 15.0087 14.6184 14.666 14.76C14.3233 14.9016 14.012 15.1095 13.75 15.3719L12.475 16.6375C11.8673 17.2909 11.4137 18.0722 11.1476 18.924C10.8816 19.7757 10.8097 20.6763 10.9375 21.5594C11.2375 25.075 13.5437 29.3032 17.0968 32.8657C20.65 36.4282 24.925 38.725 28.4406 39.0625C28.7029 39.0765 28.9658 39.0765 29.2281 39.0625C29.9849 39.0943 30.7404 38.9747 31.4503 38.7107C32.1603 38.4466 32.8103 38.0436 33.3625 37.525L34.6281 36.25C34.8905 35.988 35.0984 35.6767 35.24 35.334C35.3816 34.9913 35.454 34.624 35.4531 34.2532C35.4552 33.885 35.3832 33.5201 35.2415 33.1803C35.0998 32.8405 34.8912 32.5326 34.6281 32.275L31.9843 29.6219ZM33.3062 34.9282L32.0312 36.1938C31.5598 36.5867 31.0095 36.8737 30.4175 37.0354C29.8255 37.1972 29.2057 37.2299 28.6 37.1313C25.5531 36.8688 21.6718 34.7125 18.4656 31.5063C15.2593 28.3 13.1031 24.4469 12.8125 21.4C12.7114 20.7943 12.7428 20.1739 12.9047 19.5815C13.0665 18.9892 13.3549 18.4389 13.75 17.9688L15.0718 16.6938C15.1594 16.6069 15.2633 16.5381 15.3776 16.4915C15.4918 16.4448 15.6141 16.4212 15.7375 16.4219C15.8609 16.4212 15.9832 16.4448 16.0974 16.4915C16.2116 16.5381 16.3155 16.6069 16.4031 16.6938L19.0562 19.375C19.2308 19.5507 19.3288 19.7883 19.3288 20.036C19.3288 20.2836 19.2308 20.5213 19.0562 20.6969L17.1812 22.5719C17.0345 22.7179 16.9402 22.9084 16.9131 23.1136C16.886 23.3188 16.9275 23.5272 17.0312 23.7063C18.1538 25.6173 19.5182 27.3756 21.0906 28.9375C22.6525 30.51 24.4108 31.8744 26.3218 32.9969C26.501 33.1006 26.7094 33.1422 26.9146 33.115C27.1198 33.0879 27.3102 32.9936 27.4562 32.8469L29.3312 30.9719C29.5069 30.7973 29.7445 30.6993 29.9922 30.6993C30.2398 30.6993 30.4774 30.7973 30.6531 30.9719L33.3062 33.625C33.3931 33.7126 33.4619 33.8165 33.5085 33.9307C33.5552 34.045 33.5788 34.1673 33.5781 34.2907C33.5722 34.5301 33.4749 34.7582 33.3062 34.9282V34.9282ZM34.9375 15.0532C33.6346 13.7453 32.0857 12.7083 30.3801 12.0019C28.6746 11.2956 26.846 10.9338 25 10.9375C24.7513 10.9375 24.5129 11.0363 24.3371 11.2121C24.1612 11.3879 24.0625 11.6264 24.0625 11.875C24.0625 12.1237 24.1612 12.3621 24.3371 12.5379C24.5129 12.7138 24.7513 12.8125 25 12.8125C26.6092 12.8125 28.2024 13.1311 29.6879 13.75C31.1733 14.3689 32.5214 15.2759 33.6545 16.4185C34.7876 17.5612 35.6831 18.9169 36.2895 20.4075C36.8959 21.8981 37.2011 23.494 37.1875 25.1032C37.1875 25.3518 37.2862 25.5903 37.4621 25.7661C37.6379 25.9419 37.8763 26.0407 38.125 26.0407C38.3736 26.0407 38.6121 25.9419 38.7879 25.7661C38.9637 25.5903 39.0625 25.3518 39.0625 25.1032C39.0804 23.2375 38.7247 21.3871 38.0162 19.661C37.3078 17.935 36.261 16.3682 34.9375 15.0532V15.0532Z" fill="#582D7F"/>
<path d="M29.6033 20.4157C30.1354 20.9445 30.5563 21.5744 30.8412 22.2683C31.1262 22.9623 31.2695 23.7062 31.2627 24.4563C31.2627 24.7049 31.3615 24.9434 31.5373 25.1192C31.7131 25.295 31.9516 25.3938 32.2002 25.3938C32.4488 25.3938 32.6873 25.295 32.8631 25.1192C33.0389 24.9434 33.1377 24.7049 33.1377 24.4563C33.1501 23.4635 32.9653 22.4782 32.5939 21.5574C32.2226 20.6366 31.6721 19.7987 30.9744 19.0923C30.2767 18.3859 29.4457 17.825 28.5296 17.4423C27.6135 17.0595 26.6305 16.8625 25.6377 16.8625C25.3891 16.8625 25.1506 16.9613 24.9748 17.1371C24.799 17.313 24.7002 17.5514 24.7002 17.8C24.7002 18.0487 24.799 18.2871 24.9748 18.463C25.1506 18.6388 25.3891 18.7375 25.6377 18.7375C26.3765 18.7431 27.107 18.8942 27.7874 19.1821C28.4679 19.4701 29.0849 19.8892 29.6033 20.4157Z" fill="#582D7F"/>
</svg>
